<svg id="Layer_1" data-name="Layer 1" xmlns="http://www.w3.org/2000/svg" viewBox="0 0 731.61 285.84"><defs><style>.cls-1{fill:#fff;}.cls-2{fill:#f37021;}</style></defs><path class="cls-1" d="M99.93,162.58a35.71,35.71,0,0,1-35.71-35.72A35.71,35.71,0,0,1,99.93,91.1a34.45,34.45,0,0,1,25.31,10.46l-9.71,9.71a22.09,22.09,0,0,0-31.14,0,22,22,0,0,0,15.54,37.56,21.37,21.37,0,0,0,15.6-6.42l9.71,9.71A34.48,34.48,0,0,1,99.93,162.58Z"/><path class="cls-1" d="M315.29,133.74A21.31,21.31,0,0,1,300.2,97.37a20.57,20.57,0,0,1,15.09-6.27h30.94v13.75H315.29a7.57,7.57,0,1,0,0,15.14h13.06a21.28,21.28,0,0,1,15,36.37,20.5,20.5,0,0,1-15,6.22H298.11V148.83h30.24a7.24,7.24,0,0,0,5.32-2.19,7.5,7.5,0,0,0,0-10.71,7.24,7.24,0,0,0-5.32-2.19Z"/><path class="cls-1" d="M467.15,162.58H453.4V121.43l-24.71,24.76-24.76-24.76v41.15H390.18V88.26l38.51,38.5,38.46-38.5Z"/><path class="cls-1" d="M562.66,91.1v13.75H521.42V120h28.84v13.75H521.42v15.09h41.24v13.75h-55V91.1Z"/><path class="cls-1" d="M667.39,91.1l-23.86,35.76,23.86,35.72H650.85l-15.59-23.36-15.54,23.36H603.18L627,126.86,603.18,91.1h16.54l15.54,23.36L650.85,91.1Z"/><path class="cls-2" d="M200.29,84.74l20.57-13.15-.85-.1L198.82,82.11l-35.54,18.38a57.29,57.29,0,0,0-3.66,8.14Z"/><path class="cls-2" d="M215,88.49l20.18-12.9-.54-.24L213.6,85.92l-55.86,29.26a55.15,55.15,0,0,0-1.16,7.33Z"/><path class="cls-2" d="M255.59,90.43l-.28-.32-22.9,11.48L157.9,140.8a53.93,53.93,0,0,0,1.94,6.45l1-.55,73.11-42.41Z"/><path class="cls-2" d="M257.66,162.33l-32.26,18.3-4.83,3.09a56.22,56.22,0,0,0,10.74-2.54l13.52-6.76a56.9,56.9,0,0,0,12.83-12.09"/><path class="cls-2" d="M200,74.64l4.67-3a55.78,55.78,0,0,0-11.93,3.1l-9.92,5a56.94,56.94,0,0,0-14.18,12.71Z"/><path class="cls-2" d="M211.43,169.57l56.8-29.75a57.82,57.82,0,0,0,1.11-7.38L210,167l-19.63,12.55.64.28Z"/><path class="cls-2" d="M225.8,173.64l37-19.13a56.06,56.06,0,0,0,3.64-8.27L224.31,171l-19.78,12.65,1.09.14Z"/><path class="cls-2" d="M179.41,173.24l23-11.55,67.08-35.15a58.1,58.1,0,0,0-.58-7.16l-68,39.58L179,173c.12.09.24.2.37.29"/><path class="cls-2" d="M263.86,102.87A56.35,56.35,0,0,0,260.57,97l-98.72,55a57.32,57.32,0,0,0,3.24,5.85Z"/><path class="cls-2" d="M193.35,154.14,268,114.85l.08,0a56.65,56.65,0,0,0-1.88-6.39l0-.07-1.35.78-73,42.32-21.33,13.63c.1.12.2.24.31.35Z"/><path class="cls-2" d="M246.29,81.89,222.78,93.68l-66.42,34.8a57.62,57.62,0,0,0,.56,7.13l67.38-39.2,22.32-14.28c-.11-.08-.22-.15-.33-.24"/><path class="cls-1" d="M302.89,213.84a5.32,5.32,0,0,1-2.17-2,5.74,5.74,0,0,1-.77-3V196.56c0-.17.08-.26.25-.26h1.32a.23.23,0,0,1,.26.26v12.28a3.93,3.93,0,0,0,1.18,3,4.81,4.81,0,0,0,6.24,0,3.94,3.94,0,0,0,1.19-3V196.56a.23.23,0,0,1,.26-.26H312a.23.23,0,0,1,.26.26v12.22a5.83,5.83,0,0,1-.76,3,5.26,5.26,0,0,1-2.15,2,7,7,0,0,1-3.23.72A6.82,6.82,0,0,1,302.89,213.84Z"/><path class="cls-1" d="M334.32,196.3h1.31a.23.23,0,0,1,.26.26V214.1c0,.17-.09.25-.26.25h-1.29a.38.38,0,0,1-.31-.18l-8.79-14.31c0-.05,0-.07-.08-.06s-.05,0-.05.09l0,14.21c0,.17-.09.25-.26.25h-1.32a.22.22,0,0,1-.25-.25V196.56c0-.17.08-.26.25-.26h1.29a.38.38,0,0,1,.31.19l8.8,14.3c0,.06,0,.08.07.07s.05,0,.05-.09l0-14.21A.23.23,0,0,1,334.32,196.3Z"/><path class="cls-1" d="M347.18,214.1V196.56a.23.23,0,0,1,.26-.26h1.32c.17,0,.25.09.25.26V214.1a.22.22,0,0,1-.25.25h-1.32C347.27,214.35,347.18,214.27,347.18,214.1Z"/><path class="cls-1" d="M371.45,196.56v1.11a.23.23,0,0,1-.26.26h-5.06a.09.09,0,0,0-.1.1V214.1c0,.17-.09.25-.26.25h-1.31c-.17,0-.26-.08-.26-.25V198c0-.07,0-.1-.1-.1h-4.85a.23.23,0,0,1-.26-.26v-1.11a.23.23,0,0,1,.26-.26h11.94A.23.23,0,0,1,371.45,196.56Z"/><path class="cls-1" d="M381.42,214.1V196.56a.23.23,0,0,1,.26-.26H383a.23.23,0,0,1,.26.26V214.1c0,.17-.09.25-.26.25h-1.32C381.51,214.35,381.42,214.27,381.42,214.1Z"/><path class="cls-1" d="M405.56,196.3h1.31a.23.23,0,0,1,.26.26V214.1c0,.17-.09.25-.26.25h-1.29a.38.38,0,0,1-.31-.18l-8.79-14.31c0-.05,0-.07-.08-.06s0,0,0,.09l0,14.21c0,.17-.09.25-.26.25h-1.31c-.18,0-.26-.08-.26-.25V196.56a.23.23,0,0,1,.26-.26h1.29a.36.36,0,0,1,.3.19l8.8,14.3c0,.06,0,.08.07.07a.08.08,0,0,0,.06-.09l0-14.21A.23.23,0,0,1,405.56,196.3Z"/><path class="cls-1" d="M420.74,213.85a5.12,5.12,0,0,1-2.12-2,5.7,5.7,0,0,1-.76-3v-7.12a5.67,5.67,0,0,1,.76-3,5.12,5.12,0,0,1,2.12-2,6.87,6.87,0,0,1,3.18-.71,7,7,0,0,1,3.15.69,5.16,5.16,0,0,1,2.13,2,5.41,5.41,0,0,1,.75,2.82v.34a.23.23,0,0,1-.26.26h-1.31a.23.23,0,0,1-.26-.26v-.31a3.67,3.67,0,0,0-1.15-2.81,4.82,4.82,0,0,0-6.12,0,3.8,3.8,0,0,0-1.16,2.91v7.22a3.8,3.8,0,0,0,1.18,2.91A4.38,4.38,0,0,0,424,213a4.26,4.26,0,0,0,3-1,3.57,3.57,0,0,0,1.12-2.76v-2.35a.09.09,0,0,0-.1-.1h-3.79c-.18,0-.26-.08-.26-.26v-1.08a.23.23,0,0,1,.26-.26h5.46a.23.23,0,0,1,.26.26v3.33a5.63,5.63,0,0,1-1.64,4.3,6.13,6.13,0,0,1-4.39,1.55A6.87,6.87,0,0,1,420.74,213.85Z"/><path class="cls-1" d="M463.42,196.56v1.11a.23.23,0,0,1-.26.26h-5.05c-.07,0-.11,0-.11.1V214.1c0,.17-.08.25-.26.25h-1.31c-.17,0-.26-.08-.26-.25V198c0-.07,0-.1-.1-.1h-4.85a.23.23,0,0,1-.26-.26v-1.11a.23.23,0,0,1,.26-.26h11.94A.23.23,0,0,1,463.42,196.56Z"/><path class="cls-1" d="M483.92,196.3h1.31a.23.23,0,0,1,.26.26V214.1c0,.17-.09.25-.26.25h-1.31c-.18,0-.26-.08-.26-.25v-7.92a.09.09,0,0,0-.1-.1h-8.23c-.07,0-.1,0-.1.1v7.92c0,.17-.09.25-.26.25h-1.32a.22.22,0,0,1-.25-.25V196.56c0-.17.08-.26.25-.26H475a.23.23,0,0,1,.26.26v7.82a.09.09,0,0,0,.1.1h8.23a.09.09,0,0,0,.1-.1v-7.82A.23.23,0,0,1,483.92,196.3Z"/><path class="cls-1" d="M508.13,197.9h-9.49c-.07,0-.1,0-.1.11v6.37a.09.09,0,0,0,.1.1h6.65a.23.23,0,0,1,.26.26v1.08a.23.23,0,0,1-.26.26h-6.65c-.07,0-.1,0-.1.1v6.47c0,.07,0,.1.1.1h9.49a.23.23,0,0,1,.26.26v1.09c0,.17-.09.25-.26.25H497c-.17,0-.26-.08-.26-.25V196.56a.23.23,0,0,1,.26-.26h11.17a.23.23,0,0,1,.26.26v1.09C508.39,197.82,508.3,197.9,508.13,197.9Z"/><path class="cls-1" d="M530.35,214.1V196.56a.23.23,0,0,1,.26-.26h1.32c.17,0,.25.09.25.26V214.1a.22.22,0,0,1-.25.25h-1.32C530.44,214.35,530.35,214.27,530.35,214.1Z"/><path class="cls-1" d="M554.49,196.3h1.31a.23.23,0,0,1,.26.26V214.1c0,.17-.09.25-.26.25h-1.29a.38.38,0,0,1-.31-.18l-8.79-14.31c0-.05,0-.07-.08-.06s-.05,0-.05.09l0,14.21c0,.17-.09.25-.26.25h-1.32a.22.22,0,0,1-.25-.25V196.56c0-.17.08-.26.25-.26H545a.38.38,0,0,1,.31.19l8.8,14.3c0,.06,0,.08.07.07s0,0,0-.09l0-14.21A.23.23,0,0,1,554.49,196.3Z"/><path class="cls-1" d="M578.39,197.9h-9.46a.1.1,0,0,0-.11.11v6.37a.1.1,0,0,0,.11.1h6.62c.18,0,.26.08.26.26v1.08a.23.23,0,0,1-.26.26h-6.62c-.07,0-.11,0-.11.1v7.92c0,.17-.08.25-.26.25h-1.31c-.17,0-.26-.08-.26-.25V196.56a.23.23,0,0,1,.26-.26h11.14a.23.23,0,0,1,.26.26v1.09C578.65,197.82,578.56,197.9,578.39,197.9Z"/><path class="cls-1" d="M588.08,214.1V196.56a.23.23,0,0,1,.26-.26h1.32c.17,0,.25.09.25.26V214.1a.22.22,0,0,1-.25.25h-1.32C588.17,214.35,588.08,214.27,588.08,214.1Z"/><path class="cls-1" d="M612.22,196.3h1.31a.23.23,0,0,1,.26.26V214.1c0,.17-.09.25-.26.25h-1.29a.38.38,0,0,1-.31-.18l-8.79-14.31c0-.05,0-.07-.08-.06s0,0,0,.09l0,14.21c0,.17-.09.25-.26.25h-1.31c-.18,0-.26-.08-.26-.25V196.56a.23.23,0,0,1,.26-.26h1.28a.38.38,0,0,1,.31.19l8.8,14.3c0,.06,0,.08.07.07s.05,0,.05-.09l0-14.21A.23.23,0,0,1,612.22,196.3Z"/><path class="cls-1" d="M625.08,214.1V196.56a.23.23,0,0,1,.26-.26h1.32a.23.23,0,0,1,.26.26V214.1c0,.17-.09.25-.26.25h-1.32C625.17,214.35,625.08,214.27,625.08,214.1Z"/><path class="cls-1" d="M649.35,196.56v1.11a.23.23,0,0,1-.26.26H644a.09.09,0,0,0-.1.1V214.1c0,.17-.08.25-.26.25h-1.31c-.17,0-.26-.08-.26-.25V198c0-.07,0-.1-.1-.1h-4.85a.23.23,0,0,1-.26-.26v-1.11a.23.23,0,0,1,.26-.26h11.94A.23.23,0,0,1,649.35,196.56Z"/><path class="cls-1" d="M670.75,197.9h-9.49c-.07,0-.1,0-.1.11v6.37a.09.09,0,0,0,.1.1h6.65a.23.23,0,0,1,.26.26v1.08a.23.23,0,0,1-.26.26h-6.65c-.07,0-.1,0-.1.1v6.47c0,.07,0,.1.1.1h9.49a.23.23,0,0,1,.26.26v1.09c0,.17-.09.25-.26.25H659.58c-.17,0-.26-.08-.26-.25V196.56a.23.23,0,0,1,.26-.26h11.17a.23.23,0,0,1,.26.26v1.09C671,197.82,670.92,197.9,670.75,197.9Z"/></svg>